<?xml version="1.0" standalone="no"?>
<!DOCTYPE svg PUBLIC "-//W3C//DTD SVG 20010904//EN"
 "http://www.w3.org/TR/2001/REC-SVG-20010904/DTD/svg10.dtd">
<svg version="1.0" xmlns="http://www.w3.org/2000/svg"
 width="267.000000pt" height="267.000000pt" viewBox="0 0 267.000000 267.000000"
 preserveAspectRatio="xMidYMid meet">
<metadata>
Created by potrace 1.16, written by Peter Selinger 2001-2019
</metadata>
<g transform="translate(0.000000,267.000000) scale(0.100000,-0.100000)"
fill="#000000" stroke="none">
<path d="M1251 2450 c-223 -46 -376 -122 -451 -223 l-29 -39 -15 31 c-19 35
-51 57 -61 40 -4 -6 2 -21 14 -33 28 -30 27 -33 -9 -28 -41 6 -80 -5 -80 -24
0 -12 9 -14 48 -9 l47 7 -65 -34 c-106 -54 -157 -150 -147 -275 6 -76 39 -137
99 -184 24 -19 72 -64 108 -100 49 -50 79 -71 123 -88 32 -11 65 -21 75 -21
38 0 42 -12 31 -84 -10 -64 -14 -71 -69 -126 -32 -32 -70 -79 -85 -104 -20
-34 -33 -46 -51 -46 -57 0 -85 -78 -42 -117 35 -31 46 -35 66 -24 27 15 45 65
38 104 -6 30 0 42 37 93 52 69 87 104 87 84 0 -17 -48 -403 -55 -448 -6 -31
-4 -34 42 -54 26 -12 68 -26 92 -33 25 -6 46 -16 49 -23 5 -16 -84 -109 -133
-138 -46 -27 -148 -64 -176 -64 -10 0 -29 -4 -43 -10 -24 -9 -24 -11 -14 -42
16 -44 61 -121 75 -125 15 -5 83 60 83 80 0 8 -12 29 -26 46 -16 20 -21 31
-12 31 23 0 139 59 180 92 22 17 56 53 76 80 l37 49 100 3 c154 5 345 65 345
108 0 15 5 18 23 13 55 -17 102 -85 145 -206 l29 -84 54 -3 c30 -2 69 0 88 3
33 6 33 7 28 46 -10 78 -68 102 -126 53 -29 -24 -31 -24 -38 -7 -47 133 -103
207 -171 226 l-46 14 -37 179 c-21 98 -38 184 -39 189 0 6 33 16 73 23 116 19
110 20 128 -15 25 -50 38 -62 76 -69 l36 -7 -6 -57 c-6 -57 -6 -58 21 -63 43
-8 331 -31 336 -26 7 8 53 514 47 521 -5 5 -305 38 -350 38 -6 0 -11 -12 -11
-27 0 -59 -10 -73 -49 -73 -46 0 -76 -29 -85 -83 -11 -59 -51 -92 -128 -106
-89 -15 -97 -14 -103 12 -6 26 -45 218 -45 222 0 2 29 17 66 34 86 40 174 128
197 195 9 27 17 74 17 104 0 36 6 63 18 80 11 15 22 38 25 51 7 28 -14 85 -36
97 -8 5 -20 27 -27 49 -18 59 -48 103 -86 129 l-33 22 39 39 c60 59 52 106
-24 134 -55 22 -195 22 -295 1z m131 -251 c37 -11 70 -24 74 -30 4 -8 0 -8
-14 0 -11 6 -39 11 -62 11 -83 0 -124 -83 -86 -173 29 -69 108 -105 166 -75
61 32 75 135 28 201 l-23 32 32 -23 c42 -30 88 -89 116 -149 31 -68 31 -200 0
-258 -71 -132 -278 -228 -520 -242 -165 -9 -277 23 -352 101 l-35 36 42 0 c31
0 42 4 42 15 0 10 -10 15 -34 15 -46 0 -94 18 -106 40 -30 55 7 102 63 81 15
-6 27 -15 27 -21 0 -5 7 -10 16 -10 12 0 15 6 10 23 -4 12 -9 47 -12 77 -6 58
-5 59 62 150 22 30 25 42 21 87 l-5 51 56 25 c148 65 345 79 494 36z m47 -45
c78 -31 97 -151 32 -201 -25 -20 -85 -15 -115 8 -24 19 -38 48 -17 35 5 -3 14
1 21 9 16 20 -6 48 -32 42 -15 -4 -18 1 -18 30 0 43 15 72 43 83 32 13 42 12
86 -6z m-49 -759 c13 -64 21 -117 19 -119 -5 -5 -88 10 -95 17 -7 7 -7 91 1
154 6 49 11 55 46 62 4 0 17 -51 29 -114z m-330 -17 c25 -20 73 -50 108 -67
62 -31 62 -31 57 -69 -3 -20 -9 -82 -15 -136 -9 -95 -8 -101 15 -140 14 -23
35 -54 48 -70 l24 -30 12 23 c7 13 21 47 31 76 18 52 18 57 0 167 -10 62 -16
115 -14 117 1 2 24 -1 51 -5 l47 -9 41 -199 c33 -165 38 -200 26 -204 -8 -3
-33 -22 -55 -42 -51 -47 -122 -64 -261 -63 -79 1 -118 7 -182 28 -70 22 -83
29 -83 47 0 25 68 572 76 606 3 17 9 21 17 15 7 -5 32 -25 57 -45z m239 -124
c3 -2 13 -55 23 -116 18 -114 16 -148 -14 -214 -14 -29 -26 -21 -63 42 l-26
44 13 130 12 131 25 -6 c14 -4 28 -9 30 -11z"/>
<path d="M989 2136 c-89 -29 -110 -209 -32 -273 12 -10 10 -14 -17 -28 -49
-25 -27 -30 28 -7 68 29 123 37 167 22 42 -14 59 -6 22 11 l-25 11 24 36 c18
26 24 48 24 89 0 49 -4 58 -37 93 -45 47 -100 63 -154 46z m121 -34 c14 -11
33 -33 44 -51 23 -41 15 -109 -19 -150 -21 -24 -34 -29 -87 -34 -50 -4 -67 -2
-82 11 -68 60 -51 209 28 243 29 12 86 3 116 -19z"/>
<path d="M1420 1840 c0 -5 7 -10 15 -10 30 0 14 -19 -31 -34 -25 -8 -62 -28
-82 -44 -52 -41 -113 -70 -172 -83 -63 -13 -102 -6 -93 18 5 12 3 14 -8 8 -24
-14 -59 -48 -59 -58 0 -6 8 -3 18 6 17 16 20 15 41 -7 31 -33 110 -74 158 -82
51 -8 107 10 132 42 11 14 27 51 36 82 19 65 47 108 75 117 25 8 26 31 1 45
-25 13 -31 13 -31 0z"/>
</g>
</svg>
